<?xml version="1.0" encoding="UTF-8" standalone="no"?><!DOCTYPE svg PUBLIC "-//W3C//DTD SVG 1.1//EN" "http://www.w3.org/Graphics/SVG/1.1/DTD/svg11.dtd"><svg width="100%" height="100%" viewBox="0 0 32 32" version="1.1" xmlns="http://www.w3.org/2000/svg" xmlns:xlink="http://www.w3.org/1999/xlink" xml:space="preserve" xmlns:serif="http://www.serif.com/" style="fill-rule:evenodd;clip-rule:evenodd;stroke-linejoin:round;stroke-miterlimit:2;"><path d="M21.56,3c0.382,0 0.748,0.152 1.018,0.422c0.27,0.27 0.422,0.636 0.422,1.018c0,4.548 0,18.571 0,23.119c0,0.382 -0.152,0.748 -0.422,1.018c-0.27,0.27 -0.636,0.422 -1.018,0.422c-2.687,-0 -8.433,-0 -11.119,-0c-0.382,-0 -0.748,-0.152 -1.018,-0.422c-0.27,-0.27 -0.422,-0.636 -0.422,-1.018c-0,-4.548 -0,-18.571 -0,-23.119c-0,-0.382 0.152,-0.748 0.422,-1.018c0.27,-0.27 0.636,-0.422 1.018,-0.422c2.687,0 8.433,0 11.119,0Z" style="fill:#4f4f4f;"/><rect x="11" y="5" width="10" height="22" style="fill:#d7ebff;"/><rect x="12" y="6" width="8" height="2" style="fill:#7ca7d9;"/><rect x="12" y="9" width="8" height="2" style="fill:#96c287;"/><rect x="12" y="12" width="8" height="2" style="fill:#d5bb6a;"/><rect x="12" y="15" width="8" height="2" style="fill:#b69ad5;"/></svg>